<svg id="Layer_1" data-name="Layer 1" xmlns="http://www.w3.org/2000/svg" viewBox="0 0 512 512"><defs><style>.cls-1{fill:#5ecaef;}.cls-2{fill:#141f38;}.cls-3{fill:#d1e1e8;}</style></defs><title>analog-phone-arrow-up-filled</title><circle class="cls-1" cx="374.15" cy="85.33" r="78.77"/><path class="cls-2" d="M374.15,170.67a85.33,85.33,0,1,1,85.33-85.33A85.43,85.43,0,0,1,374.15,170.67Zm0-157.54a72.21,72.21,0,1,0,72.21,72.21A72.29,72.29,0,0,0,374.15,13.13Z"/><path class="cls-3" d="M367.59,347.9h51.2a34.13,34.13,0,0,0,34.13-34.13V255.34a25.6,25.6,0,0,0-25.6-25.6h-67a25.6,25.6,0,0,0-25.6,25.6v5.89c-66.13-13.92-118.22-67.94-131.64-136.52h1a25.6,25.6,0,0,0,25.6-25.6v-67a25.6,25.6,0,0,0-25.6-25.6H145.72A34.13,34.13,0,0,0,111.59,40.7V91.9c0,141.38,114.62,256,256,256"/><path class="cls-2" d="M418.79,354.46h-51.2C222.81,354.46,105,236.68,105,91.9V40.7A40.74,40.74,0,0,1,145.72,0h58.42a32.2,32.2,0,0,1,32.16,32.16v67a32.22,32.22,0,0,1-25.21,31.41C225.49,190.75,270.45,237.68,328.29,253a32.21,32.21,0,0,1,32.08-29.78h67a32.2,32.2,0,0,1,32.17,32.16v58.42A40.74,40.74,0,0,1,418.79,354.46ZM145.72,13.13A27.6,27.6,0,0,0,118.15,40.7V91.9c0,137.54,111.9,249.44,249.44,249.44h51.2a27.6,27.6,0,0,0,27.57-27.57V255.34a19.06,19.06,0,0,0-19-19h-67a19.06,19.06,0,0,0-19,19v14l-7.92-1.67C264.36,253.12,210.69,197.51,196.68,126l-1.53-7.82h9a19.06,19.06,0,0,0,19-19v-67a19.06,19.06,0,0,0-19-19Z"/><path class="cls-2" d="M124.71,512a6.53,6.53,0,0,1-3.92-1.31l-38-28.43a6.54,6.54,0,0,1-.76-.66,78.81,78.81,0,0,1,91.73-127.88l7.36,5.35,128.14,92.65a45.46,45.46,0,0,0,25.53,7.77,46,46,0,0,0,45.95-45.95V347.9a6.56,6.56,0,1,1,13.13,0v65.64a59,59,0,0,1-92.1,49l-2.89-2.06L166.34,364.56a65.67,65.67,0,0,0-76,106.86,7.07,7.07,0,0,1,.61.55l37.7,28.22A6.56,6.56,0,0,1,124.71,512Z"/><path class="cls-2" d="M347.9,118.15a6.56,6.56,0,0,1-4.64-11.21l41.31-41.31H361a6.56,6.56,0,0,1,0-13.13h39.4A6.56,6.56,0,0,1,407,59.06h0v39.4a6.56,6.56,0,0,1-13.13,0V74.92l-41.31,41.31A6.54,6.54,0,0,1,347.9,118.15Z"/></svg>